<svg xmlns="http://www.w3.org/2000/svg" id="Layer_1" version="1.1" viewBox="0 0 600 600"><defs><style>.st3{fill:#fff}</style></defs><path id="Layer_2" d="M594 600c7-30-2-60-27-78 11-46-27-96-72-101l-7-7-12-14-39-111-68-196c-20-73-48-88-68-88s-33 14-42 26c-10 15-19 37-26 64a18189 18189 0 0 0-102 299l-17 17-11 12c-31 7-59 33-64 65-1 9 2 28 0 33-39 37-30 65-28 79h583Z" class="st3"/><g id="Layer_3"><path d="M103 600c-4-29 20-55 51-52 5 0 10-1 10 6-26-4-53 21-43 46h36l-2-16c0-6 11-30 12-31s5-1 7-3c10-8 12-13 26-13 3 0 6-1 6 2-26 5-49 36-37 61h316c9-31-24-54-54-41-1-5 4-7 7-9 34-16 71 16 63 50h82c4-9 1-21-1-30l-6 8c-6-23-23-39-44-51-1-6 3-3 6-2 14 5 35 21 38 36 4 1 2-5 1-7-9-28-51-42-78-35-1-5 1-4 4-5 14-7 25-5 40-4 22-80-97-107-114-26-1 2 0 3-5 3l-6-102H314c-2 195-17 210-22 0H188l-6 108c-6 1-4 0-5-3-5-86-127-67-114 12 4 17 11 8 23 8 4 1 16 3 19 7-48-7-98 37-79 83h77Z" style="fill:#f2913c"/><path d="M67 531c3 2-17 16-19 19-8 9-9 17-15 27-1 3 0 5-5 4 0-23 17-44 39-50Z" class="st3"/></g><g id="Layer_11"><path d="M525 567c-15-96-1-92-65-162 1 0-92-260-107-308-26-83-72-114-105 2h1c-35 100-68 201-104 301-65 71-56 65-71 163-2 14 9 22 20 12l59-56c25-4 42 3 64 0 15-4 10-23 14-34-26 0-19-19-13-36 2-6 13-31 17-34 9-7 29-3 41-3h67c11-2 24-1 30 10 7 17 36 64-1 63 2 9 1 24 7 31 20 8 46 3 68 2 19 19 38 39 58 56 8 9 22 5 21-7Z" style="fill:#2c6e66"/><path d="M496 502c-51-133-93-271-143-405l-104 1c-46 134-90 270-141 402-10 31 53 14 71 17 11 0 27 4 38 1 15-4 11-23 15-34-27 1-20-19-14-36 2-6 13-30 17-34 9-7 29-3 41-3h67c11-2 24-1 30 10 7 17 36 65-1 63 2 9 1 24 8 31 22 9 52 1 76 2 14 0 42 8 40-15Z" style="fill:#8f6db0"/><path d="M323 222c-11 0-41 4-50-2-3-2-5-5-3-9 9-11 21-83 42-51 8 16 12 36 20 51 2 6-4 11-9 11Zm-41 139c-35-14-41-61-12-85 23-20 58-14 74 12 26 41-16 93-62 73Z" style="fill:#082230"/><path d="M289 214c-4 0-10-1-8-6l8-20c4-7 7-24 14-26 4 0 7 7 6 11l-9 21c-3 5-5 20-11 20Zm-18 126c-7-2-8-12-10-19-2-15 4-30 15-40 8-6 18-10 28-10 3 0 10 0 10 5 0 2-2 4-4 4-23-1-42 22-38 45 0 5 7 14-1 15Z" class="st3"/><path d="m319 572-4 2-1 2 5-4zm-30-38h2v3h-2z" style="fill:#ef9322"/><path d="M326 567h2v2h-2z" style="fill:#e06225"/></g></svg>