<svg xmlns="http://www.w3.org/2000/svg" viewBox="0 0 340 30" class="logotype-svg">
  <defs>
    <style>
      .letter-light {
        fill: #374151;
        opacity: 0.12;
        stroke: #374151;
        stroke-width: 0.3;
        stroke-opacity: 0.08;
      }
      .letter-dark {
        fill: #f3f4f6;
        opacity: 0.12;
        stroke: #f3f4f6;
        stroke-width: 0.3;
        stroke-opacity: 0.08;
      }
    </style>
  </defs>
  
  <!-- Light mode letters -->
  <g class="letters-light">
    <!-- N -->
    <path d="M8 5 L8 25 L10 25 L10 10 L18 25 L20 25 L20 5 L18 5 L18 20 L10 5 Z" class="letter-light"/>
    
    <!-- E -->
    <path d="M26 5 L26 25 L36 25 L36 23 L28 23 L28 16 L34 16 L34 14 L28 14 L28 7 L36 7 L36 5 Z" class="letter-light"/>
    
    <!-- M -->
    <path d="M42 5 L42 25 L44 25 L44 9 L48 22 L50 22 L54 9 L54 25 L56 25 L56 5 L53 5 L49 19 L45 5 Z" class="letter-light"/>
    
    <!-- O -->
    <path d="M62 7 Q62 5 65 5 L67 5 Q70 5 70 7 L70 23 Q70 25 67 25 L65 25 Q62 25 62 23 Z M64 7 L64 23 Q64 23 65 23 L67 23 Q68 23 68 23 L68 7 Q68 7 67 7 L65 7 Q64 7 64 7 Z" class="letter-light"/>
    
    <!-- Space -->
    
    <!-- T -->
    <path d="M80 5 L80 7 L86 7 L86 25 L88 25 L88 7 L94 7 L94 5 Z" class="letter-light"/>
    
    <!-- . (period) -->
    <circle cx="100" cy="23" r="1" class="letter-light"/>
    
    <!-- Space -->
    
    <!-- R -->
    <path d="M110 5 L110 25 L112 25 L112 16 L118 16 Q120 16 120 14 L120 9 Q120 7 118 7 L118 5 Z M112 7 L118 7 Q118 9 118 9 L118 14 Q118 14 118 14 L112 14 Z M116 16 L120 25 L122 25 L118 16 Z" class="letter-light"/>
    
    <!-- A -->
    <path d="M128 25 L130 20 L136 20 L138 25 L140 25 L134 5 L132 5 L126 25 Z M131 18 L133 11 L135 18 Z" class="letter-light"/>
    
    <!-- T -->
    <path d="M146 5 L146 7 L152 7 L152 25 L154 25 L154 7 L160 7 L160 5 Z" class="letter-light"/>
    
    <!-- H -->
    <path d="M166 5 L166 25 L168 25 L168 16 L174 16 L174 25 L176 25 L176 5 L174 5 L174 14 L168 14 L168 5 Z" class="letter-light"/>
    
    <!-- W -->
    <path d="M182 5 L182 25 L184 25 L184 10 L187 22 L189 22 L192 10 L192 25 L194 25 L194 5 L191 5 L188 18 L185 5 Z" class="letter-light"/>
    
    <!-- A -->
    <path d="M200 25 L202 20 L208 20 L210 25 L212 25 L206 5 L204 5 L198 25 Z M203 18 L205 11 L207 18 Z" class="letter-light"/>
    
    <!-- L -->
    <path d="M218 5 L218 25 L228 25 L228 23 L220 23 L220 5 Z" class="letter-light"/>
    
    <!-- D -->
    <path d="M234 5 L234 25 L240 25 Q242 25 242 23 L242 7 Q242 5 240 5 Z M236 7 L240 7 Q240 7 240 7 L240 23 Q240 23 240 23 L236 23 Z" class="letter-light"/>
  </g>
</svg>
